# xmcd
#
# Track frame offsets:
#	150
#	16098
#	31021
#	53777
#	69910
#	86550
#	103733
#	121100
#	132265
#	145392
#	161213
#	174099
#	194220
#
# Disc length: 2775 seconds
#
# Revision: 0
# Processed by: cddbd v1.5.2PL0 Copyright (c) Steve Scherf et al.
# Submitted via: dBpowerAMP V4.0
#
DISCID=aa0ad50d
DTITLE=Blind Boys of Alabama (The) - Down in New Orleans [2008]
DYEAR=2008
DGENRE=
TTITLE0=Free at Last
TTITLE1=Make a Better World (with The Hot 8 Brass Band)
TTITLE2=How I got Over
TTITLE3=You got to Move (with Bennie Pete and Carl LeBlanc)
TTITLE4=Across the Bridge (with The Preservation Hall Jazz Band)
TTITLE5=You Better Mind (with Carl LeBlanc)
TTITLE6=Down by the Riverside (with The Preservation Hall Jazz Band and Allen Toussaint)
TTITLE7=If I Could Help Somebody (with Allen Toussaint)
TTITLE8=Uncloudy Day (with The Preservation Hall Jazz Band)
TTITLE9=Prayer (A)
TTITLE10=I've got a Home
TTITLE11=I'll Fly Away (with The Hot 8 Brass Band)
TTITLE12=Down by the Roverside (Live Version)
EXTD=
EXTT0=
EXTT1=
EXTT2=
EXTT3=
EXTT4=
EXTT5=
EXTT6=
EXTT7=
EXTT8=
EXTT9=
EXTT10=
EXTT11=
EXTT12=
PLAYORDER=
